<?xml version="1.0" encoding="UTF-8"?>
<svg width="20px" height="20px" viewBox="0 0 20 20" version="1.1" xmlns="http://www.w3.org/2000/svg" xmlns:xlink="http://www.w3.org/1999/xlink">
    <!-- Generator: Sketch 48.2 (47327) - http://www.bohemiancoding.com/sketch -->
    <title>linkedin</title>
    <desc>Created with Sketch.</desc>
    <defs></defs>
    <g id="Home-page" stroke="none" stroke-width="1" fill="none" fill-rule="evenodd" transform="translate(-1297.000000, -3474.000000)">
        <g id="4" transform="translate(1146.000000, 3430.000000)" fill="#FFFFFF">
            <g id="linkedin" transform="translate(151.000000, 44.000000)">
                <g id="Linked-In">
                    <path d="M18.512,19.013 L1.488,19.013 C0.672,19.013 0.011,18.434 0.011,17.72 L0.011,2.282 C0.011,1.569 0.672,0.99 1.488,0.99 L18.512,0.99 C19.327,0.99 19.988,1.569 19.988,2.282 L19.988,17.72 C19.988,18.434 19.327,19.013 18.512,19.013 L18.512,19.013 Z M3.473,16.044 L6.415,16.044 L6.415,7.907 L3.473,7.907 L3.473,16.044 L3.473,16.044 Z M4.964,3.985 C3.957,3.985 3.3,4.592 3.3,5.391 C3.3,6.171 3.938,6.797 4.925,6.797 L4.944,6.797 C5.97,6.797 6.608,6.171 6.608,5.391 C6.59,4.592 5.97,3.985 4.964,3.985 L4.964,3.985 Z M17.023,11.379 C17.023,8.879 15.571,7.716 13.636,7.716 C12.074,7.716 11.376,8.505 10.985,9.06 L10.985,7.907 L8.043,7.907 C8.082,8.671 8.043,16.044 8.043,16.044 L10.985,16.044 L10.985,11.5 C10.985,11.258 11.004,11.014 11.082,10.841 C11.294,10.355 11.779,9.852 12.591,9.852 C13.656,9.852 14.081,10.598 14.081,11.692 L14.081,16.044 L17.023,16.044 L17.023,11.379 L17.023,11.379 Z M10.965,9.087 C10.971,9.078 10.979,9.069 10.985,9.06 L10.985,9.087 L10.965,9.087 L10.965,9.087 Z" id="Shape"></path>
                </g>
            </g>
        </g>
    </g>
</svg>