<?xml version="1.0" encoding="utf-8"?>
<!-- Generator: Adobe Illustrator 19.2.1, SVG Export Plug-In . SVG Version: 6.00 Build 0)  -->
<svg version="1.1" id="Слой_1" xmlns="http://www.w3.org/2000/svg" xmlns:xlink="http://www.w3.org/1999/xlink" x="0px" y="0px"
	 viewBox="0 0 24 36" style="enable-background:new 0 0 24 36;" xml:space="preserve">
<style type="text/css">
	.st0{opacity:0.7;}
	.st1{fill:#FFFFFF;}
	.st2{fill:#D8D8D8;}
</style>
<title>Scroll</title>
<desc>Created with Sketch.</desc>
<g id="Home-page" transform="translate(-798.000000, -915.000000)" class="st0">
	<g id="PROMO" transform="translate(0.000000, -5.000000)">
		<g id="Scroll-" transform="translate(798.000000, 920.000000)">
			<g id="Rectangle-4">
				<path class="st1" d="M12,35.4c-6.5,0-11.8-5.3-11.8-11.8V12.4C0.2,5.9,5.5,0.6,12,0.6s11.8,5.3,11.8,11.8v11.3
					C23.8,30.1,18.5,35.4,12,35.4z M12,2.6c-5.4,0-9.8,4.4-9.8,9.8v11.3c0,5.4,4.4,9.8,9.8,9.8c5.4,0,9.8-4.4,9.8-9.8V12.4
					C21.8,7,17.4,2.6,12,2.6z"/>
			</g>
			<g id="Oval-2">
				<path class="st2" d="M12,14c1.5,0,2.7-1.2,2.7-2.7S13.5,8.6,12,8.6s-2.7,1.2-2.7,2.7S10.5,14,12,14z"/>
			</g>
		</g>
	</g>
</g>
</svg>
