<?xml version="1.0" encoding="UTF-8"?>
<svg width="8px" height="14px" viewBox="0 0 8 14" version="1.1" xmlns="http://www.w3.org/2000/svg" xmlns:xlink="http://www.w3.org/1999/xlink">
    <!-- Generator: Sketch 48.2 (47327) - http://www.bohemiancoding.com/sketch -->
    <title>Shape</title>
    <desc>Created with Sketch.</desc>
    <defs></defs>
    <g id="Home-page" stroke="none" stroke-width="1" fill="none" fill-rule="evenodd" transform="translate(-746.000000, -2236.000000)">
        <g id="Group-5" transform="translate(192.000000, 1953.000000)" fill="#D0021B">
            <g id="Group-6" transform="translate(2.000000, 183.000000)">
                <g id="4-copy" transform="translate(15.000000, 20.000000)">
                    <g id="Button-" transform="translate(442.000000, 80.000000)">
                        <path d="M102.999414,6.86466287 C103.005137,7.01088848 102.955632,7.15883103 102.843745,7.2710041 C102.818849,7.2956135 102.781935,7.28903191 102.754178,7.30734589 L95.9313656,13.5664316 C95.7184657,13.7790453 95.3733618,13.7790453 95.1604619,13.5664316 C94.947562,13.3535316 94.947562,13.0084278 95.1604619,12.7949555 L101.628155,6.86294594 L95.1598895,0.930077868 C94.9467035,0.717177958 94.9467035,0.371787915 95.1598895,0.159460316 C95.3727895,-0.0531534387 95.7178933,-0.0531534387 95.9307933,0.159460316 L102.751889,6.41568443 C102.780791,6.43514303 102.818849,6.42856144 102.844317,6.45431546 C102.957349,6.56677469 103.005995,6.71643417 102.999414,6.86466287 L102.999414,6.86466287 Z" id="Shape"></path>
                    </g>
                </g>
            </g>
        </g>
    </g>
</svg>