<?xml version="1.0" encoding="UTF-8"?>
<svg width="14px" height="18px" viewBox="0 0 14 18" version="1.1" xmlns="http://www.w3.org/2000/svg" xmlns:xlink="http://www.w3.org/1999/xlink">
    <!-- Generator: Sketch 48.2 (47327) - http://www.bohemiancoding.com/sketch -->
    <title>pininterest</title>
    <desc>Created with Sketch.</desc>
    <defs></defs>
    <g id="Home-page" stroke="none" stroke-width="1" fill="none" fill-rule="evenodd" transform="translate(-1380.000000, -3475.000000)">
        <g id="4" transform="translate(1146.000000, 3430.000000)" fill="#FFFFFF">
            <g id="pininterest" transform="translate(234.000000, 45.000000)">
                <g id="Shape">
                    <path d="M7.424,0 C2.489,0 0.001,3.522 0.001,6.46 C0.001,8.238 0.677,9.82 2.128,10.41 C2.366,10.507 2.579,10.413 2.648,10.151 C2.696,9.97 2.81,9.512 2.86,9.321 C2.93,9.062 2.903,8.971 2.711,8.745 C2.292,8.254 2.025,7.618 2.025,6.717 C2.025,4.104 3.989,1.765 7.139,1.765 C9.928,1.765 11.46,3.462 11.46,5.727 C11.46,8.709 10.135,11.225 8.167,11.225 C7.081,11.225 6.268,10.33 6.528,9.233 C6.841,7.924 7.445,6.51 7.445,5.564 C7.445,4.718 6.989,4.012 6.044,4.012 C4.934,4.012 4.042,5.156 4.042,6.688 C4.042,7.665 4.373,8.325 4.373,8.325 C4.373,8.325 3.236,13.119 3.037,13.959 C2.64,15.631 2.978,17.681 3.006,17.889 C3.023,18.011 3.181,18.04 3.253,17.948 C3.355,17.814 4.678,16.189 5.128,14.564 C5.255,14.104 5.858,11.722 5.858,11.722 C6.219,12.407 7.274,13.011 8.395,13.011 C11.734,13.011 13.999,9.98 13.999,5.924 C13.999,2.857 11.39,0 7.424,0 L7.424,0 Z"></path>
                </g>
            </g>
        </g>
    </g>
</svg>