<?xml version="1.0" encoding="UTF-8" standalone="no"?>
<svg width="8px" height="14px" viewBox="0 0 8 14" version="1.1" xmlns="http://www.w3.org/2000/svg" xmlns:xlink="http://www.w3.org/1999/xlink">
    <!-- Generator: Sketch 48.1 (47250) - http://www.bohemiancoding.com/sketch -->
    <title>Shape</title>
    <desc>Created with Sketch.</desc>
    <defs></defs>
    <g id="Products-list" stroke="none" stroke-width="1" fill="none" fill-rule="evenodd" transform="translate(-237.000000, -180.000000)">
        <path d="M244.999414,187.001751 C245.005137,187.150897 244.955632,187.301794 244.843745,187.416207 C244.818849,187.441308 244.781935,187.434595 244.754178,187.453275 L237.931366,193.837355 C237.718466,194.054215 237.373362,194.054215 237.160462,193.837355 C236.947562,193.620204 236.947562,193.268208 237.160462,193.050473 L243.628155,187 L237.15989,180.948652 C236.946703,180.7315 236.946703,180.379213 237.15989,180.162645 C237.372789,179.945785 237.717893,179.945785 237.930793,180.162645 L244.751889,186.543807 C244.780791,186.563654 244.818849,186.556941 244.844317,186.583209 C244.957349,186.697914 245.005995,186.850562 244.999414,187.001751 L244.999414,187.001751 Z" id="Shape" fill="#D0021B"></path>
    </g>
</svg>