<?xml version="1.0" encoding="UTF-8" standalone="no"?>
<svg width="105px" height="117px" viewBox="0 0 105 117" version="1.1" xmlns="http://www.w3.org/2000/svg" xmlns:xlink="http://www.w3.org/1999/xlink">
    <!-- Generator: Sketch 48.1 (47250) - http://www.bohemiancoding.com/sketch -->
    <title>logo</title>
    <desc>Created with Sketch.</desc>
    <defs>
        <polygon id="path-1" points="0 117 104.60625 117 104.60625 0.7839 0 0.7839"></polygon>
    </defs>
    <g id="header" stroke="none" stroke-width="1" fill="none" fill-rule="evenodd" transform="translate(-189.000000, -24.000000)">
        <g id="logo" transform="translate(189.000000, 24.000000)">
            <g id="Page-1">
                <path d="M74.2573271,83.1128215 L75.0383939,77.5189232 L75.133646,77.5189232 L75.9630715,83.1128215 L77.816823,92.9799801 L72.6981243,92.9799801 L74.2573271,83.1128215 Z M71.5287222,98.7671785 L78.8865768,98.7671785 L80.2508792,105 L88,105 L79.17966,68 L71.5287222,68 L63,105 L70.2142438,105 L71.5287222,98.7671785 Z" id="Fill-1" fill="#FEFEFE"></path>
                <polygon id="Fill-2" fill="#FEFEFE" points="50.1881982 28.4276033 49.381839 23 49.285878 23 48.5224864 28.4276033 47 38 52 38"></polygon>
                <g id="Group-11">
                    <path d="M49.3925833,89.4153488 C51.009875,90.5502487 51.97675,91.2624862 52.3019583,91.5549862 C53.206125,92.4631988 53.6596667,93.5337488 53.6596667,94.7637113 C53.6596667,95.9658862 53.263,96.9296737 52.471125,97.6579987 C51.6777917,98.3892487 50.6875833,98.7534112 49.4888333,98.7534112 C47.711125,98.7534112 45.8838333,98.1040612 44.009875,96.8068237 L44.009875,103.714211 C45.689875,104.947099 47.7607083,105.564274 50.2165417,105.564274 C53.51675,105.564274 56.1155,104.477636 58.027375,102.304361 C59.83425,100.230536 60.7413333,97.5058988 60.7413333,94.1333738 C60.7413333,91.3122113 59.7875833,88.8786113 57.8800833,86.8384238 C57.7838333,86.7389737 56.0207083,85.3144987 52.5921667,82.5576863 C50.6875833,81.0001238 49.732375,79.4293988 49.732375,77.8381988 C49.732375,75.4396988 50.9413333,74.2389863 53.372375,74.2389863 C55.0815417,74.2389863 56.8300833,75.0184988 58.6063333,76.5745988 L58.6063333,69.5209613 C56.5719583,68.3217113 54.4355,67.7220863 52.2057083,67.7220863 C49.2321667,67.7220863 46.871125,68.7926363 45.1255,70.9308113 C43.4746667,72.9446738 42.6507083,75.4718738 42.6507083,78.5197238 C42.6507083,81.0162112 43.2646667,83.1412238 44.4955,84.8903738 C45.4652917,86.3192363 47.0957083,87.8270738 49.3925833,89.4153488" id="Fill-3" fill="#FEFEFE"></path>
                    <path d="M78.6874375,24.5240775 C78.6874375,21.4762275 77.0526458,19.9523025 73.7874375,19.9523025 L72.8161875,19.9523025 L72.8161875,29.7276525 L74.0805625,29.7773775 C77.1488958,29.90754 78.6874375,28.155465 78.6874375,24.5240775" id="Fill-5" fill="#FEFEFE"></path>
                    <path d="M27.7624375,105.562811 C32.3197292,105.562811 35.4405625,104.299211 37.1205625,101.769086 C38.1224375,100.246624 38.6255625,98.0075363 38.6255625,95.0547488 L38.6255625,68.3056238 L31.3995208,68.3056238 L31.3995208,93.5980988 C31.3995208,95.3823488 31.2361875,96.6137738 30.9153542,97.2938363 C30.4297292,98.4301988 29.3957708,98.9961863 27.8105625,98.9961863 C26.0955625,98.9961863 25.0120208,98.1874238 24.5613958,96.5640488 C24.3353542,95.8181738 24.2216042,94.3117988 24.2216042,92.0419988 L24.2216042,68.3056238 L16.9955625,68.3056238 L16.9955625,95.5432238 C16.9955625,102.223924 20.5830625,105.562811 27.7624375,105.562811" id="Fill-7" fill="#FEFEFE"></path>
                    <mask id="mask-2" fill="white">
                        <use xlink:href="#path-1"></use>
                    </mask>
                    <g id="Clip-10"></g>
                    <path d="M3.50145833,113.105363 L101.101875,113.105363 L101.101875,59.825025 L3.50145833,59.825025 L3.50145833,113.105363 Z M20.1935417,16.59645 C21.9420833,14.45535 24.29875,13.3862625 27.2752083,13.3862625 C29.5064583,13.3862625 31.6385417,13.984425 33.6772917,15.1851375 L33.6772917,22.238775 C31.8995833,20.682675 30.1510417,19.9031625 28.4375,19.9031625 C26.01375,19.9031625 24.8004167,21.103875 24.8004167,23.502375 C24.8004167,25.0921125 25.7541667,26.6643 27.663125,28.2218625 C31.0872917,30.978675 32.851875,32.40315 32.9495833,32.5011375 C34.8570833,34.5427875 35.8122917,36.9763875 35.8122917,39.7960875 C35.8122917,43.170075 34.9052083,45.8917875 33.0954167,47.9685375 C31.1864583,50.1418125 28.58625,51.22845 25.2875,51.22845 C22.8302083,51.22845 20.759375,50.611275 19.0779167,49.37985 L19.0779167,42.471 C20.951875,43.7697 22.780625,44.416125 24.56125,44.416125 C25.7541667,44.416125 26.7516667,44.0519625 27.5435417,43.3236375 C28.3339583,42.5923875 28.7291667,41.6300625 28.7291667,40.4278875 C28.7291667,39.195 28.2785417,38.127375 27.3729167,37.2191625 C27.0491667,36.928125 26.0779167,36.214425 24.465,35.0780625 C22.1666667,33.4897875 20.531875,31.9834125 19.565,30.55455 C18.3341667,28.8039375 17.7216667,26.6803875 17.7216667,24.1839 C17.7216667,21.1375125 18.545625,18.605925 20.1935417,16.59645 Z M46.2860417,13.9698 L53.9,13.9698 L62.6791667,50.64345 L54.9660417,50.64345 L53.6127083,44.46585 L46.2860417,44.46585 L44.9779167,50.64345 L37.8,50.64345 L46.2860417,13.9698 Z M65.5914583,13.9698 L72.8670833,13.9698 C76.3889583,13.9698 79.104375,14.4729 81.0147917,15.4776375 C84.1502083,17.0980875 85.715,20.097675 85.715,24.4778625 C85.715,28.884375 83.986875,32.0477625 80.530625,33.95925 L86.883125,50.64345 L79.2677083,50.64345 L72.91375,33.716475 L72.8160417,33.716475 L72.8160417,50.64345 L65.5914583,50.64345 L65.5914583,13.9698 Z M33.044375,0.7839 C19.691875,1.4990625 10.101875,7.4953125 4.51208333,18.6395625 C1.07770833,25.491375 0.215833333,32.3899875 0,35.278425 L0,117 L104.60625,117 L104.60625,0.7839 L33.044375,0.7839 Z" id="Fill-9" fill="#FEFEFE" mask="url(#mask-2)"></path>
                </g>
            </g>
        </g>
    </g>
</svg>