<?xml version="1.0" encoding="UTF-8"?>
<svg width="61px" height="67px" viewBox="0 0 61 67" version="1.1" xmlns="http://www.w3.org/2000/svg" xmlns:xlink="http://www.w3.org/1999/xlink">
    <!-- Generator: Sketch 48.2 (47327) - http://www.bohemiancoding.com/sketch -->
    <title>logo-red</title>
    <desc>Created with Sketch.</desc>
    <defs>
        <polygon id="path-1" points="0.0061409396 0.0666954545 60.9153574 0.0666954545 60.9153574 66.9939091 0.0061409396 66.9939091"></polygon>
    </defs>
    <g id="Home-page" stroke="none" stroke-width="1" fill="none" fill-rule="evenodd" transform="translate(-176.000000, -3601.000000)">
        <g id="Group-8" transform="translate(176.000000, 3601.000000)">
            <g id="logo-red">
                <g id="sar-usa-logo-son">
                    <g id="Group-3">
                        <mask id="mask-2" fill="white">
                            <use xlink:href="#path-1"></use>
                        </mask>
                        <g id="Clip-2"></g>
                        <path d="M19.2427366,0.0666954545 C11.4671812,0.478237879 5.8818943,3.93198636 2.62709396,10.3503833 C0.627706376,14.2963788 0.125479866,18.2699864 0,19.9331091 L0,67 L60.9153574,67 L60.9153574,0.0666954545 L19.2427366,0.0666954545" id="Fill-1" fill="#B4B5B4" mask="url(#mask-2)"></path>
                    </g>
                    <path d="M20.7024874,9.04623324 L20.7024874,13.1463199 C19.6209775,12.242112 18.5575301,11.7893933 17.515993,11.7893933 C16.0424504,11.7893933 15.3043432,12.4870187 15.3043432,13.8813474 C15.3043432,14.8059471 15.88459,15.7200946 17.0449767,16.6250198 C19.1280509,18.2275704 20.2010105,19.0561543 20.2594734,19.1132309 C21.419967,20.2996451 22,21.7142631 22,23.3541133 C22,25.3151089 21.4490381,26.897985 20.349145,28.104791 C19.1875826,29.3686736 17.6058784,30 15.6005052,30 C14.1062281,30 12.8475126,29.641555 11.824145,28.9252797 L11.824145,24.9090147 C12.9641178,25.6637167 14.0759813,26.0401967 15.1587738,26.0401967 C15.88459,26.0401967 16.4903809,25.8283883 16.972192,25.404669 C17.4529343,24.9794126 17.6933055,24.4201235 17.6933055,23.7213709 C17.6933055,23.0048907 17.4189468,22.383504 16.8677711,21.8556737 C16.6712204,21.6863909 16.0812476,21.2714841 15.1004178,20.6109533 C13.7032938,19.6875833 12.7091042,18.81176 12.1204139,17.9813316 C11.3725806,16.9636879 11,15.7288047 11,14.2776044 C11,12.5062834 11.5000874,11.0345888 12.5028274,9.86610711 C13.566061,8.62148919 14.9996308,8 16.8096288,8 C18.1666731,8 19.463117,8.34850531 20.7024874,9.04623324" id="Fill-4" fill="#D8232A"></path>
                    <path d="M30.8888457,22.1768268 L29.7767731,16.5782196 L29.2809763,13.4036132 L29.2232269,13.4036132 L28.7538146,16.5782196 L27.8200763,22.1768268 L30.8888457,22.1768268 Z M27.1171235,8 L31.7070853,8 L37,29 L32.3497457,29 L31.5338372,25.4625555 L27.1171235,25.4625555 L26.3277056,29 L22,29 L27.1171235,8 Z" id="Fill-5" fill="#D8232A"></path>
                    <path d="M42.072274,11.4257166 L42.072274,17.0235164 L42.7845481,17.0515745 C44.5146678,17.1261607 45.3809657,16.1232338 45.3809657,14.0439039 C45.3809657,12.2986476 44.4595955,11.4257166 42.6190343,11.4257166 L42.072274,11.4257166 Z M42.072274,29 L38,29 L38,8 L42.1006026,8 C44.0860751,8 45.6160132,8.28835285 46.692596,8.86374647 C48.4600578,9.79168349 49.3419067,11.5093864 49.3419067,14.016956 C49.3419067,16.540977 48.3676434,18.3515341 46.4193149,19.446306 L50,29 L45.7083285,29 L42.1275444,19.3070246 L42.072274,19.3070246 L42.072274,29 Z" id="Fill-6" fill="#D8232A"></path>
                    <polyline id="Fill-7" fill="#D8232A" points="43.427083 44 43.371813 44 42.9146455 47.2562289 42 53 45 53 43.9137485 47.2562289 43.427083 44"></polyline>
                    <path d="M46.6169653,60.2712699 L45.8243378,56.677394 L41.5471052,56.677394 L40.783321,60.2712699 L36.5911815,60.2712699 L41.5471052,38.9338366 L45.9945238,38.9338366 L51.1203256,60.2712699 L46.6169653,60.2712699 Z M33.8435703,58.7152295 C32.7279177,59.9795059 31.209998,60.6113364 29.2829339,60.6113364 C27.8479516,60.6113364 26.6388918,60.2526052 25.6572941,59.5356554 L25.6572941,55.5165938 C26.7521096,56.2714882 27.8186977,56.6493969 28.8574688,56.6493969 C29.556997,56.6493969 30.1363275,56.4369066 30.5990528,56.0121311 C31.0618808,55.5877657 31.2927302,55.026902 31.2927302,54.3281042 C31.2927302,53.6119749 31.0281104,52.9892716 30.5,52.4610198 C30.3111325,52.2909866 29.7458645,51.8763638 28.8015271,51.2160234 C27.4597468,50.2917111 26.5071978,49.4146757 25.940698,48.5830714 C25.222591,47.5656407 24.8634348,46.3292588 24.8634348,44.8767972 C24.8634348,43.1034465 25.3449443,41.6326278 26.3090922,40.4612646 C27.3279502,39.2168836 28.7069907,38.5936675 30.4440583,38.5936675 C31.7462174,38.5936675 32.9936666,38.9430664 34.1826079,39.6407361 L34.1826079,43.7446093 C33.1440421,42.8391667 32.1239524,42.3860865 31.124905,42.3860865 C29.7061407,42.3860865 28.9997353,43.084269 28.9997353,44.4802238 C28.9997353,45.4056642 29.556997,46.320029 30.670186,47.2260869 C32.671976,48.8300197 33.7013038,49.6592652 33.7583746,49.7163873 C34.8716663,50.9037488 35.428928,52.3194964 35.428928,53.9605534 C35.428928,55.9232174 34.8995858,57.5084855 33.8435703,58.7152295 Z M22.5132665,54.4976247 C22.5132665,56.2155967 22.2193928,57.5177152 21.6342115,58.4041855 C20.6526139,59.875722 18.8304533,60.6108237 16.1689615,60.6108237 C11.9756929,60.6108237 9.88080352,58.668055 9.88080352,54.7817998 L9.88080352,38.9338366 L14.1009652,38.9338366 L14.1009652,52.7439642 C14.1009652,54.0643373 14.1673768,54.9413726 14.2991734,55.3752754 C14.5625615,56.319278 15.1955754,56.7904076 16.1970863,56.7904076 C17.1226396,56.7904076 17.7265023,56.4606989 18.0099062,55.7998458 C18.1975419,55.4044005 18.2930021,54.6874508 18.2930021,53.649612 L18.2930021,38.9338366 L22.5132665,38.9338366 L22.5132665,54.4976247 Z M2,65 L59,65 L59,34 L2,34 L2,65 Z" id="Fill-8" fill="#D8232A"></path>
                </g>
            </g>
        </g>
    </g>
</svg>