<svg width="61" height="67" viewBox="0 0 61 67" xmlns="http://www.w3.org/2000/svg" xmlns:xlink="http://www.w3.org/1999/xlink">
    <title>
        logo-red
    </title>
    <defs>
        <path id="a" d="M.006.067h60.91v66.927H.005z"/>
    </defs>
    <g fill="none" fill-rule="evenodd">
        <g>
            <mask id="b" fill="#fff">
                <use xlink:href="#a"/>
            </mask>
            <path d="M19.243.067C11.467.478 5.882 3.932 2.627 10.35.627 14.296.125 18.27 0 19.933V67h60.915V.067H19.243" fill="#B4B5B4" mask="url(#b)"/>
        </g>
        <path d="M20.702 9.046v4.1c-1.081-.904-2.144-1.357-3.186-1.357-1.474 0-2.212.698-2.212 2.092 0 .925.58 1.84 1.741 2.744 2.083 1.603 3.156 2.431 3.214 2.488C21.42 20.3 22 21.714 22 23.354c0 1.961-.551 3.544-1.65 4.75C19.187 29.37 17.605 30 15.6 30c-1.494 0-2.752-.358-3.776-1.075V24.91c1.14.755 2.252 1.131 3.335 1.131.726 0 1.331-.212 1.813-.635.48-.426.721-.985.721-1.684 0-.716-.274-1.337-.825-1.865-.197-.17-.787-.585-1.768-1.245-1.397-.923-2.39-1.8-2.98-2.63-.747-1.017-1.12-2.252-1.12-3.703 0-1.772.5-3.243 1.503-4.412C13.566 8.621 15 8 16.81 8c1.357 0 2.653.349 3.892 1.046" fill="#D8232A"/>
        <path d="M30.889 22.177l-1.112-5.599-.496-3.174h-.058l-.47 3.174-.933 5.599h3.069zM27.117 8h4.59L37 29h-4.65l-.816-3.537h-4.417L26.327 29H22l5.117-21z" fill="#D8232A"/>
        <path d="M42.072 11.426v5.598l.713.028c1.73.074 2.596-.929 2.596-3.008 0-1.745-.921-2.618-2.762-2.618h-.547zm0 17.574H38V8h4.1c1.986 0 3.516.288 4.593.864 1.767.928 2.649 2.645 2.649 5.153 0 2.524-.974 4.335-2.923 5.43L50 29h-4.292l-3.58-9.693h-.056V29z" fill="#D8232A"/>
        <path fill="#D8232A" d="M43.427 44h-.055l-.457 3.256L42 53h3l-1.086-5.744L43.427 44"/>
        <path d="M46.617 60.271l-.793-3.594h-4.277l-.764 3.594h-4.192l4.956-21.337h4.448L51.12 60.27h-4.503zm-12.773-1.556c-1.116 1.265-2.634 1.896-4.561 1.896-1.435 0-2.644-.358-3.626-1.075v-4.02c1.095.755 2.162 1.133 3.2 1.133.7 0 1.28-.212 1.742-.637.463-.424.694-.985.694-1.684 0-.716-.265-1.339-.793-1.867-.189-.17-.754-.585-1.698-1.245-1.342-.924-2.295-1.801-2.861-2.633-.718-1.017-1.078-2.254-1.078-3.706 0-1.774.482-3.244 1.446-4.416 1.019-1.244 2.398-1.867 4.135-1.867 1.302 0 2.55.35 3.739 1.047v4.104c-1.039-.906-2.059-1.359-3.058-1.359-1.419 0-2.125.698-2.125 2.094 0 .926.557 1.84 1.67 2.746 2.002 1.604 3.031 2.433 3.088 2.49 1.114 1.188 1.67 2.603 1.67 4.245 0 1.962-.528 3.547-1.584 4.754zm-11.33-4.217c0 1.718-.295 3.02-.88 3.906-.981 1.472-2.804 2.207-5.465 2.207-4.193 0-6.288-1.943-6.288-5.83V38.935h4.22v13.81c0 1.32.066 2.197.198 2.631.264.944.897 1.415 1.898 1.415.926 0 1.53-.33 1.813-.99.188-.396.283-1.113.283-2.15V38.934h4.22v15.564zM2 65h57V34H2v31z" fill="#D8232A"/>
    </g>
</svg>
