<svg width="105" height="117" viewBox="0 0 105 117" xmlns="http://www.w3.org/2000/svg" xmlns:xlink="http://www.w3.org/1999/xlink">
    <title>
        logo
    </title>
    <defs>
        <path id="a" d="M0 117h104.606V.784H0z"/>
    </defs>
    <g fill="none" fill-rule="evenodd">
        <path d="M74.257 83.113l.781-5.594h.096l.83 5.594 1.853 9.867h-5.119l1.56-9.867zM71.53 98.767h7.358L80.25 105H88l-8.82-37h-7.651L63 105h7.214l1.315-6.233z" fill="#FEFEFE"/>
        <path fill="#FEFEFE" d="M50.188 28.428L49.382 23h-.096l-.764 5.428L47 38h5z"/>
        <g>
            <path d="M49.393 89.415c1.617 1.135 2.584 1.847 2.909 2.14.904.908 1.358 1.979 1.358 3.209 0 1.202-.397 2.166-1.189 2.894-.793.731-1.783 1.095-2.982 1.095-1.778 0-3.605-.649-5.48-1.946v6.907c1.68 1.233 3.752 1.85 6.208 1.85 3.3 0 5.898-1.086 7.81-3.26 1.807-2.073 2.714-4.798 2.714-8.17 0-2.822-.953-5.255-2.86-7.296-.097-.099-1.86-1.524-5.289-4.28-1.904-1.558-2.86-3.129-2.86-4.72 0-2.398 1.21-3.599 3.64-3.599 1.71 0 3.458.78 5.234 2.336V69.52c-2.034-1.2-4.17-1.799-6.4-1.799-2.974 0-5.335 1.07-7.08 3.209-1.651 2.014-2.475 4.54-2.475 7.589 0 2.496.614 4.621 1.844 6.37.97 1.43 2.6 2.937 4.898 4.525" fill="#FEFEFE"/>
            <path d="M78.687 24.524c0-3.048-1.634-4.572-4.9-4.572h-.97v9.776l1.264.05c3.068.13 4.606-1.623 4.606-5.254" fill="#FEFEFE"/>
            <path d="M27.762 105.563c4.558 0 7.679-1.264 9.359-3.794 1.001-1.522 1.505-3.761 1.505-6.714v-26.75H31.4v25.293c0 1.784-.164 3.016-.485 3.696-.485 1.136-1.52 1.702-3.104 1.702-1.715 0-2.799-.809-3.25-2.432-.226-.746-.34-2.252-.34-4.522V68.306h-7.225v27.237c0 6.68 3.587 10.02 10.766 10.02" fill="#FEFEFE"/>
            <mask id="b" fill="#fff">
                <use xlink:href="#a"/>
            </mask>
            <path d="M3.501 113.105h97.6v-53.28h-97.6v53.28zm16.693-96.509c1.748-2.14 4.105-3.21 7.081-3.21 2.231 0 4.364.598 6.402 1.8v7.053c-1.777-1.556-3.526-2.336-5.24-2.336-2.423 0-3.637 1.2-3.637 3.6 0 1.59.954 3.161 2.863 4.719 3.424 2.757 5.189 4.181 5.287 4.28 1.907 2.04 2.862 4.474 2.862 7.294 0 3.374-.907 6.096-2.717 8.173-1.909 2.173-4.509 3.26-7.807 3.26-2.458 0-4.529-.618-6.21-1.85v-6.908c1.874 1.299 3.703 1.945 5.483 1.945 1.193 0 2.19-.364 2.983-1.092.79-.732 1.185-1.694 1.185-2.896 0-1.233-.45-2.3-1.356-3.209-.324-.29-1.295-1.005-2.908-2.14-2.298-1.59-3.933-3.096-4.9-4.524-1.23-1.751-1.843-3.875-1.843-6.371 0-3.046.824-5.578 2.472-7.588zm26.092-2.626H53.9l8.78 36.673h-7.714l-1.353-6.177h-7.327l-1.308 6.177H37.8l8.486-36.673zm19.305 0h7.276c3.522 0 6.237.503 8.148 1.508 3.135 1.62 4.7 4.62 4.7 9 0 4.406-1.728 7.57-5.184 9.481l6.352 16.684h-7.615l-6.354-16.927h-.098v16.927h-7.225V13.97zM33.044.784C19.692 1.499 10.102 7.495 4.512 18.64 1.078 25.49.216 32.39 0 35.278V117h104.606V.784H33.044z" fill="#FEFEFE" mask="url(#b)"/>
        </g>
    </g>
</svg>
