<?xml version="1.0" encoding="UTF-8"?><!DOCTYPE svg PUBLIC "-//W3C//DTD SVG 1.1//EN" "http://www.w3.org/Graphics/SVG/1.1/DTD/svg11.dtd"><svg xmlns="http://www.w3.org/2000/svg"><symbol id="icon-arrow-next" viewBox="0 0 23 18">
    <title>
        arrow-next
    </title>
    <path d="M22.911 9.404c-.05.13-.123.253-.228.358l-7.952 7.95a1.02 1.02 0 0 1-1.446 0 1.02 1.02 0 0 1 0-1.444L19.553 10H1a1 1 0 0 1 0-2h18.555l-6.27-6.271A1.023 1.023 0 0 1 14.731.283l7.952 7.953c.106.105.179.229.229.36.055.124.088.26.088.404 0 .144-.034.28-.089.404z" fill-rule="evenodd" opacity=".5"/>
</symbol><symbol id="icon-arrow-prev" viewBox="0 0 23 18">
    <title>
        arrow-prev
    </title>
    <path d="M.089 8.596c.05-.13.123-.253.228-.358L8.269.288a1.02 1.02 0 0 1 1.446 0 1.02 1.02 0 0 1 0 1.444L3.447 8H22a1 1 0 0 1 0 2H3.445l6.27 6.271a1.023 1.023 0 0 1-1.446 1.446L.317 9.764a1.003 1.003 0 0 1-.229-.36A.993.993 0 0 1 0 9c0-.144.034-.28.089-.404z" fill-rule="evenodd" opacity=".5"/>
</symbol><symbol id="icon-facebook" viewBox="0 0 10 19">
    <title>
        facebook
    </title>
    <path d="M6.137 18.993H2.046V9.499H.001V6.226h2.045V4.262c0-2.669 1.155-4.258 4.433-4.258h2.73v3.273H7.504c-1.278 0-1.362.458-1.362 1.312l-.005 1.637h3.092l-.362 3.273h-2.73v9.494z" fill-rule="evenodd"/>
</symbol><symbol id="icon-linkedin" viewBox="0 0 20 20">
    <title>
        linkedin
    </title>
    <path d="M18.512 19.013H1.488c-.816 0-1.477-.579-1.477-1.293V2.282C.011 1.569.672.99 1.488.99h17.024c.815 0 1.476.579 1.476 1.292V17.72c0 .714-.661 1.293-1.476 1.293zM3.473 16.044h2.942V7.907H3.473v8.137zM4.964 3.985c-1.007 0-1.664.607-1.664 1.406 0 .78.638 1.406 1.625 1.406h.019c1.026 0 1.664-.626 1.664-1.406-.018-.799-.638-1.406-1.644-1.406zm12.059 7.394c0-2.5-1.452-3.663-3.387-3.663-1.562 0-2.26.789-2.651 1.344V7.907H8.043c.039.764 0 8.137 0 8.137h2.942V11.5c0-.242.019-.486.097-.659.212-.486.697-.989 1.509-.989 1.065 0 1.49.746 1.49 1.84v4.352h2.942v-4.665zm-6.058-2.292l.02-.027v.027h-.02z" fill-rule="evenodd"/>
</symbol><symbol id="icon-mouse" viewBox="0 0 24 36">
    <style>
        .st0{opacity:.7}.st1{fill:#fff}.st2{fill:#d8d8d8}
    </style>
    <title>
        Scroll
    </title>
    <g id="Home-page" transform="translate(-798 -915)" class="st0">
        <g id="PROMO" transform="translate(0 -5)">
            <g id="Scroll-" transform="translate(798 920)">
                <path class="st1" d="M12 35.4C5.5 35.4.2 30.1.2 23.6V12.4C.2 5.9 5.5.6 12 .6s11.8 5.3 11.8 11.8v11.3c0 6.4-5.3 11.7-11.8 11.7zm0-32.8c-5.4 0-9.8 4.4-9.8 9.8v11.3c0 5.4 4.4 9.8 9.8 9.8s9.8-4.4 9.8-9.8V12.4c0-5.4-4.4-9.8-9.8-9.8z" id="Rectangle-4"/>
                <path class="st2" d="M12 14c1.5 0 2.7-1.2 2.7-2.7S13.5 8.6 12 8.6s-2.7 1.2-2.7 2.7S10.5 14 12 14z" id="Oval-2"/>
            </g>
        </g>
    </g>
</symbol><symbol id="icon-next" viewBox="0 0 8 14">
    <title>
        Shape
    </title>
    <path d="M8 6.865a.54.54 0 0 1-.156.406c-.025.025-.062.018-.09.036l-6.823 6.26a.546.546 0 0 1-.77-.772l6.467-5.932L.16.93A.544.544 0 1 1 .93.16l6.822 6.256c.029.02.067.013.092.038a.538.538 0 0 1 .155.41z" fill-rule="evenodd"/>
</symbol><symbol id="icon-pinterest" viewBox="0 0 14 18">
    <title>
        pininterest
    </title>
    <path d="M7.424 0C2.489 0 .001 3.522.001 6.46c0 1.778.676 3.36 2.127 3.95.238.097.451.003.52-.259.048-.181.162-.639.212-.83.07-.259.043-.35-.149-.576-.419-.491-.686-1.127-.686-2.028 0-2.613 1.964-4.952 5.114-4.952 2.789 0 4.321 1.697 4.321 3.962 0 2.982-1.325 5.498-3.293 5.498-1.086 0-1.899-.895-1.639-1.992.313-1.309.917-2.723.917-3.669 0-.846-.456-1.552-1.401-1.552-1.11 0-2.002 1.144-2.002 2.676 0 .977.331 1.637.331 1.637l-1.336 5.634c-.397 1.672-.059 3.722-.031 3.93.017.122.175.151.247.059.102-.134 1.425-1.759 1.875-3.384.127-.46.73-2.842.73-2.842.361.685 1.416 1.289 2.537 1.289 3.339 0 5.604-3.031 5.604-7.087C13.999 2.857 11.39 0 7.424 0z" fill-rule="evenodd"/>
</symbol><symbol id="icon-twitter" viewBox="0 0 21 16">
    <title>
        twitter
    </title>
    <path d="M21.008 1.896a9.062 9.062 0 0 1-2.475.635c.89-.5 1.573-1.292 1.895-2.234a9.05 9.05 0 0 1-2.738.98A4.437 4.437 0 0 0 14.545.001c-2.38 0-4.311 1.809-4.311 4.039 0 .317.038.626.112.921-3.582-.169-6.758-1.777-8.884-4.22a3.829 3.829 0 0 0-.583 2.031c0 1.4.761 2.638 1.917 3.362a4.527 4.527 0 0 1-1.952-.506v.052c0 1.957 1.485 3.589 3.457 3.96a4.696 4.696 0 0 1-1.946.07c.548 1.603 2.14 2.772 4.026 2.805a9.023 9.023 0 0 1-5.353 1.728c-.348 0-.691-.019-1.028-.056a12.81 12.81 0 0 0 6.607 1.815c7.928 0 12.263-6.156 12.263-11.493 0-.176-.005-.349-.013-.523a8.503 8.503 0 0 0 2.151-2.09z" fill-rule="evenodd"/>
</symbol></svg>